<svg version="1.1" id="Layer_1" xmlns="http://www.w3.org/2000/svg" xmlns:xlink="http://www.w3.org/1999/xlink" x="0px" y="0px"
	 width="100%" viewBox="0 0 96 96" enable-background="new 0 0 96 96" xml:space="preserve">
<path fill="#020202" opacity="1.000000" stroke="none" 
	d="
M71.000015,97.000000 
	C47.333340,97.000000 24.166674,97.000000 1.000006,97.000000 
	C1.000004,65.000000 1.000004,33.000004 1.000002,1.000006 
	C32.999996,1.000004 64.999992,1.000004 97.000000,1.000002 
	C97.000000,32.999996 97.000000,64.999992 97.000000,97.000000 
	C88.500008,97.000000 80.000008,97.000000 71.000015,97.000000 
M56.352177,70.418892 
	C58.664455,70.718300 59.676495,69.876099 59.541416,67.383286 
	C59.357094,63.981724 59.495422,60.562675 59.495422,56.838253 
	C63.728783,56.838253 67.226883,57.070843 70.683296,56.790066 
	C77.984993,56.196922 81.887878,52.174744 82.357216,44.949860 
	C82.507553,42.635612 82.469536,40.270908 82.173950,37.973518 
	C81.460693,32.429813 78.050842,28.554237 72.507423,28.144077 
	C65.929817,27.657396 59.288662,28.029625 52.183132,28.029625 
	C52.183132,41.500046 52.125343,54.782787 52.325867,68.061623 
	C52.337971,68.863411 54.407154,69.634125 56.352177,70.418892 
M24.257748,34.099991 
	C27.663517,33.511082 27.959299,35.440506 27.929033,38.184418 
	C27.812033,48.791523 27.881500,59.400684 27.881500,70.179260 
	C30.479403,70.179260 32.561104,70.179260 35.245602,70.179260 
	C35.245602,58.105312 35.245602,46.230865 35.245602,33.913395 
	C39.595863,33.913395 43.345909,33.913395 47.063072,33.913395 
	C47.063072,31.684385 47.063072,29.922182 47.063072,27.988201 
	C36.581013,27.988201 26.348553,27.988201 16.045853,27.988201 
	C16.045853,30.106890 16.045853,31.975508 16.045853,34.100273 
	C18.696543,34.100273 21.007957,34.100273 24.257748,34.099991 
z"/>
<path fill="#F4F4F4" opacity="1.000000" stroke="none" 
	d="
M55.935669,70.419098 
	C54.407154,69.634125 52.337971,68.863411 52.325867,68.061623 
	C52.125343,54.782787 52.183132,41.500046 52.183132,28.029625 
	C59.288662,28.029625 65.929817,27.657396 72.507423,28.144077 
	C78.050842,28.554237 81.460693,32.429813 82.173950,37.973518 
	C82.469536,40.270908 82.507553,42.635612 82.357216,44.949860 
	C81.887878,52.174744 77.984993,56.196922 70.683296,56.790066 
	C67.226883,57.070843 63.728783,56.838253 59.495422,56.838253 
	C59.495422,60.562675 59.357094,63.981724 59.541416,67.383286 
	C59.676495,69.876099 58.664455,70.718300 55.935669,70.419098 
M74.758453,46.689999 
	C76.322014,34.745953 72.626938,31.801048 59.779541,34.726475 
	C59.779541,39.913994 59.779541,45.089455 59.779541,50.755795 
	C64.968216,49.576103 70.517815,52.766659 74.758453,46.689999 
z"/>
<path fill="#FAFAFA" opacity="1.000000" stroke="none" 
	d="
M23.788559,34.100132 
	C21.007957,34.100273 18.696543,34.100273 16.045853,34.100273 
	C16.045853,31.975508 16.045853,30.106890 16.045853,27.988201 
	C26.348553,27.988201 36.581013,27.988201 47.063072,27.988201 
	C47.063072,29.922182 47.063072,31.684385 47.063072,33.913395 
	C43.345909,33.913395 39.595863,33.913395 35.245602,33.913395 
	C35.245602,46.230865 35.245602,58.105312 35.245602,70.179260 
	C32.561104,70.179260 30.479403,70.179260 27.881500,70.179260 
	C27.881500,59.400684 27.812033,48.791523 27.929033,38.184418 
	C27.959299,35.440506 27.663517,33.511082 23.788559,34.100132 
z"/>
<path fill="#101010" opacity="1.000000" stroke="none" 
	d="
M74.572777,47.066368 
	C70.517815,52.766659 64.968216,49.576103 59.779541,50.755795 
	C59.779541,45.089455 59.779541,39.913994 59.779541,34.726475 
	C72.626938,31.801048 76.322014,34.745953 74.572777,47.066368 
z"/>
</svg>